HIERARCHY
ROOT Hips
{
    OFFSET 0.000000 0.000000 0.000000
    CHANNELS 6 Xposition Yposition Zposition Zrotation Xrotation Yrotation
    JOINT Spine
    {
        OFFSET -0.000000 0.081343 0.000000
        CHANNELS 3 Zrotation Xrotation Yrotation
        JOINT Spine1
        {
            OFFSET -0.000000 0.243280 0.000000
            CHANNELS 3 Zrotation Xrotation Yrotation
            JOINT Neck
            {
                OFFSET -0.000000 0.242281 0.022026
                CHANNELS 3 Zrotation Xrotation Yrotation
                JOINT Head
                {
                    OFFSET -0.000000 0.149025 -0.021289
                    CHANNELS 3 Zrotation Xrotation Yrotation
                    End Site
                    {
                        OFFSET -0.000000 0.198396 0.000000
                    }
                }
            }
            JOINT LeftShoulder
            {
                OFFSET 0.039707 0.224479 -0.002125
                CHANNELS 3 Zrotation Xrotation Yrotation
                JOINT LeftArm
                {
                    OFFSET 0.116942 0.000000 0.000000
                    CHANNELS 3 Zrotation Xrotation Yrotation
                    JOINT LeftForeArm
                    {
                        OFFSET 0.282002 0.000000 0.000000
                        CHANNELS 3 Zrotation Xrotation Yrotation
                        JOINT LeftHand
                        {
                            OFFSET 0.358743 0.000000 0.000000
                            CHANNELS 3 Zrotation Xrotation Yrotation
                            End Site
                            {
                                OFFSET 0.148797 0.000000 0.000000
                            }
                        }
                    }
                }
            }
            JOINT RightShoulder
            {
                OFFSET -0.039404 0.224479 -0.002125
                CHANNELS 3 Zrotation Xrotation Yrotation
                JOINT RightArm
                {
                    OFFSET -0.116942 0.000000 0.000000
                    CHANNELS 3 Zrotation Xrotation Yrotation
                    JOINT RightForeArm
                    {
                        OFFSET -0.282002 0.000000 0.000000
                        CHANNELS 3 Zrotation Xrotation Yrotation
                        JOINT RightHand
                        {
                            OFFSET -0.358743 0.000000 0.000000
                            CHANNELS 3 Zrotation Xrotation Yrotation
                            End Site
                            {
                                OFFSET -0.148797 0.000000 0.000000
                            }
                        }
                    }
                }
            }
        }
    }
    JOINT LeftUpLeg
    {
        OFFSET 0.099198 0.000000 0.000000
        CHANNELS 3 Zrotation Xrotation Yrotation
        JOINT LeftLeg
        {
            OFFSET -0.000000 -0.332973 0.000000
            CHANNELS 3 Zrotation Xrotation Yrotation
            JOINT LeftFoot
            {
                OFFSET -0.000000 -0.491254 0.000000
                CHANNELS 3 Zrotation Xrotation Yrotation
                JOINT LeftToeBase
                {
                    OFFSET -0.000000 -0.064479 0.148797
                    CHANNELS 3 Zrotation Xrotation Yrotation
                    End Site
                    {
                        OFFSET -0.000000 0.000000 0.039679
                    }
                }
            }
        }
    }
    JOINT RightUpLeg
    {
        OFFSET -0.099198 0.000000 0.000000
        CHANNELS 3 Zrotation Xrotation Yrotation
        JOINT RightLeg
        {
            OFFSET -0.000000 -0.332973 0.000000
            CHANNELS 3 Zrotation Xrotation Yrotation
            JOINT RightFoot
            {
                OFFSET -0.000000 -0.491254 0.000000
                CHANNELS 3 Zrotation Xrotation Yrotation
                JOINT RightToeBase
                {
                    OFFSET -0.000000 -0.064479 0.148797
                    CHANNELS 3 Zrotation Xrotation Yrotation
                    End Site
                    {
                        OFFSET -0.000000 0.000000 0.039679
                    }
                }
            }
        }
    }
}
MOTION
Frames:    6
Frame Time:    0.010000
-0.222929    0.850507    -0.454304    -5.691855    -5.074604    -49.563114    -0.065952    1.093941    -7.639288    -5.321284    10.797536    -2.048559    9.766683    12.738945    8.445679    -2.657066    -14.766565    7.752819    -11.943755    31.844725    -3.222021    -32.577183    22.722584    -45.816769    -12.846235    -38.988079    -68.331940    -12.622985    -44.757576    -9.168386    6.449828    23.841831    8.804585    41.252716    40.700500    5.728323    -9.649556    -8.303832    68.851028    31.277481    1.227554    10.414692    22.506159    -11.962981    9.874881    -16.203661    30.588869    8.175640    -1.646703    -11.610410    22.579500    0.000000    0.000000    0.000000    -13.094866    -9.025447    -10.146282    2.721690    37.912231    -2.899188    16.801960    -12.578572    38.621933    0.000000    0.000000    0.000000    
-0.223092    0.850367    -0.454101    -5.747926    -5.077960    -49.457996    -0.054639    1.088351    -7.710060    -5.360733    10.801286    -2.063339    10.003546    12.743588    8.472294    -2.913936    -14.699542    7.706348    -11.851634    31.884682    -3.296224    -32.647552    22.603441    -45.834881    -13.156457    -38.962246    -68.311729    -12.649724    -44.935974    -8.487976    6.615475    23.821217    8.769693    41.158577    40.843899    5.687632    -9.945474    -8.386104    68.822723    30.847933    1.609965    11.514658    22.596119    -11.931402    9.981336    -16.219172    30.787954    8.056170    -3.026279    -13.140300    22.871218    0.000000    0.000000    0.000000    -13.098948    -8.956121    -10.462983    2.574547    37.977871    -2.578089    16.775696    -12.613813    38.577034    0.000000    0.000000    0.000000    
-0.223224    0.850183    -0.453899    -5.788768    -5.081968    -49.373432    -0.099985    0.995995    -7.724838    -5.245451    10.948392    -2.072475    10.017312    12.753183    8.477884    -3.062885    -14.754251    7.671618    -11.841691    31.889721    -3.465249    -32.640926    22.532326    -45.836983    -13.243808    -39.011616    -68.222740    -12.334336    -45.041176    -8.337416    6.626430    23.746881    8.743733    41.142105    40.838810    5.712307    -9.699138    -8.504166    68.695160    31.693472    1.121880    10.557833    22.568651    -12.003660    10.128876    -16.030567    30.876974    3.896344    -0.791178    -11.907046    26.423382    0.000000    0.000000    0.000000    -13.103085    -8.886623    -10.546691    2.581779    37.995686    -2.577014    16.797785    -12.648799    38.606110    0.000000    0.000000    0.000000    
-0.223337    0.850019    -0.453731    -5.824625    -5.090009    -49.305107    -0.079969    0.977989    -7.765245    -5.264169    10.966073    -2.083303    10.083321    12.797399    8.510970    -3.186002    -14.822123    7.673396    -11.830276    31.922432    -3.484196    -32.607964    22.524677    -45.884430    -13.305067    -39.078815    -68.148727    -12.151882    -45.134552    -8.313413    6.694272    23.701538    8.736259    41.153950    40.808487    5.656874    -9.983574    -8.425754    68.719894    31.223988    1.637757    11.563725    22.732725    -11.998629    10.131226    -16.279301    30.887276    7.901314    -1.568123    -11.760676    22.347504    0.000000    0.000000    0.000000    -13.114217    -8.805473    -10.309775    2.842388    37.968105    -3.012344    16.821693    -12.661783    38.671768    0.000000    0.000000    0.000000    
-0.223431    0.849836    -0.453589    -5.849575    -5.090315    -49.249001    -0.064643    0.984748    -7.825121    -5.269305    10.928659    -2.104449    10.113293    12.846786    8.556760    -3.266308    -14.876297    7.701847    -11.887085    31.945131    -3.421579    -32.591282    22.555506    -45.914139    -13.221689    -39.131687    -68.014328    -12.122222    -45.121075    -8.397905    6.742806    23.690037    8.739360    41.138302    40.757587    5.667385    -10.113742    -8.364472    68.677414    31.076670    1.885591    11.982109    22.785557    -11.855408    9.496706    -16.698967    30.713968    8.497363    -2.885360    -13.366182    22.695774    0.000000    0.000000    0.000000    -13.138648    -8.774092    -10.438004    2.832606    38.008751    -2.956958    16.735653    -12.550075    38.693687    0.000000    0.000000    0.000000    
-0.223508    0.849690    -0.453454    -5.874797    -5.104399    -49.204739    -0.083602    0.974397    -7.844610    -5.236601    10.944932    -2.113381    10.325243    12.841727    8.630936    -3.776765    -14.850470    7.636154    -11.901567    31.974739    -3.447347    -32.613499    22.574087    -45.939487    -13.082296    -39.219254    -67.862236    -12.199957    -45.106850    -8.453649    6.775113    23.669233    8.720095    41.152584    40.734554    5.673494    -10.234046    -8.369260    68.623741    31.076607    2.010120    12.171660    22.821033    -11.914719    9.677365    -16.650520    30.706720    8.354301    -1.462720    -11.876450    22.276434    0.000000    0.000000    0.000000    -12.942445    -8.665606    -11.765077    1.447281    37.859787    -1.998072    17.180929    -12.284864    39.676037    0.000000    0.000000    0.000000    
